<svg xmlns="http://www.w3.org/2000/svg" width="512" height="512" viewBox="0 0 512 512">
  <g fill="#fff" stroke="none">
    <path d="M136 146 C136 110 164 92 202 92 H328 C372 92 396 114 396 150 V256 C396 292 370 314 332 318 H186 C152 314 136 292 136 258 Z" />
    <path d="M194 334 C194 314 206 304 228 304 H298 C322 304 336 316 336 338 V432 H194 Z" />
    <path d="M136 386 C128 410 142 428 170 428 C182 428 190 420 188 410 C176 400 154 396 136 386 Z" />
    <path d="M336 340 C364 344 386 362 394 388 C404 414 390 436 358 438 C344 426 336 406 336 340 Z" />
    <path d="M340 400 C380 392 416 402 436 430 C454 456 444 476 410 478 C382 478 360 466 346 446 C342 430 340 416 340 400 Z" />
  </g>
  <g fill="none" stroke="#000" stroke-width="16" stroke-linecap="round" stroke-linejoin="round">
    <path d="M162 110 L206 48 L240 112" />
    <path d="M312 104 L356 50 L398 118" />
    <path d="M136 146 C136 110 164 92 202 92 H328 C372 92 396 114 396 150 V256 C396 292 370 314 332 318 H186 C152 314 136 292 136 258 Z" />
    <path d="M194 334 C194 314 206 304 228 304 H298 C322 304 336 316 336 338 V432 H194 Z" />
    <path d="M194 432 C194 454 206 466 226 468" />
    <path d="M252 432 C252 454 262 468 280 470" />
    <path d="M290 432 C290 454 304 468 326 468" />
    <path d="M176 336 C154 342 138 360 136 386" />
    <path d="M336 340 C364 344 386 362 394 388" />
    <path d="M136 386 C128 410 142 428 170 428" />
    <path d="M394 388 C404 414 390 436 358 438" />
    <path d="M340 400 C380 392 416 402 436 430" />
    <path d="M436 430 C454 456 444 476 410 478" />
    <path d="M410 478 C382 478 360 466 346 446" />
    <ellipse cx="234" cy="188" rx="18" ry="28" fill="#000" stroke="none" />
    <ellipse cx="318" cy="196" rx="24" ry="34" fill="#000" stroke="none" />
    <path d="M202 212 L170 222" />
    <path d="M202 230 L166 236" />
    <path d="M202 248 L170 248" />
    <path d="M344 220 L372 214" />
    <path d="M344 238 L378 232" />
    <path d="M344 254 L376 252" />
    <path d="M274 232 C284 228 292 228 300 232" />
    <path d="M266 248 C280 258 298 258 316 248" />
    <path d="M140 424 C150 408 170 404 188 414" />
    <path d="M348 440 C360 426 384 422 398 432" />
  </g>
  <g fill="#000">
    <circle cx="154" cy="420" r="10" />
    <circle cx="176" cy="416" r="10" />
    <circle cx="170" cy="438" r="10" />
    <circle cx="374" cy="434" r="10" />
    <circle cx="396" cy="436" r="10" />
    <circle cx="386" cy="454" r="10" />
  </g>
</svg>
