<svg xmlns="http://www.w3.org/2000/svg" width="512" height="512" viewBox="0 0 512 512">
  <g fill="#fff" stroke="#000" stroke-width="18" stroke-linecap="round" stroke-linejoin="round">
    <path d="M208 120 C194 90 204 64 226 54 C244 66 248 92 240 122 Z" />
    <path d="M278 126 C280 102 274 82 260 74 C250 84 250 104 254 126 Z" />
    <path d="M172 176 C174 120 210 92 256 92 H300 C332 96 356 116 364 144 C380 150 396 164 406 182 C416 206 412 232 396 248 C378 264 354 274 320 276 H252 C206 270 176 236 172 190 Z" />
    <path d="M286 184 C324 184 360 198 386 220 C394 236 390 248 370 258 H300 C274 254 258 240 256 220 C264 198 272 188 286 184 Z" />
    <path d="M204 310 C224 294 252 288 286 292 C312 296 332 308 344 326 L344 420 H206 L198 330 C198 322 200 316 204 310 Z" />
    <path d="M210 420 C212 444 224 460 240 466" />
    <path d="M284 420 C292 444 306 458 322 464" />
    <path d="M338 332 C366 346 384 370 388 400 C386 420 374 432 354 434 C340 424 336 404 338 332 Z" />
    <path d="M344 394 C372 398 396 412 406 430 C406 444 396 452 378 452 C360 452 346 444 338 430 Z" />
  </g>
  <g fill="#000" stroke="none">
    <ellipse cx="234" cy="188" rx="13" ry="21" />
    <ellipse cx="300" cy="204" rx="11" ry="8" />
  </g>
  <g fill="none" stroke="#000" stroke-width="16" stroke-linecap="round" stroke-linejoin="round">
    <path d="M300 212 C310 218 322 218 332 212" />
    <path d="M300 214 L312 224" />
    <path d="M212 418 C196 432 188 448 188 462" />
    <path d="M292 420 C300 438 314 454 330 462" />
    <path d="M350 432 C362 424 374 424 386 430" />
  </g>
</svg>
