<svg xmlns="http://www.w3.org/2000/svg" width="512" height="512" viewBox="0 0 512 512">
  <g fill="#fff" stroke="#000" stroke-width="18" stroke-linecap="round" stroke-linejoin="round">
    <path d="M194 122 C182 92 192 68 214 58 C232 68 236 92 228 122 Z" />
    <path d="M296 118 C302 92 294 72 278 64 C266 74 264 94 270 118 Z" />
    <path d="M152 176 C152 122 186 92 238 92 H286 C324 94 352 112 364 142 C384 148 404 164 414 184 C424 210 418 238 396 258 C380 272 360 280 332 284 H224 C184 280 156 250 152 210 Z" />
    <path d="M250 204 C276 184 326 184 356 202 C366 214 362 234 342 246 H286 C264 242 250 228 250 204 Z" />
    <path d="M210 308 C228 292 258 286 298 290 C324 294 344 308 352 328 L346 424 H200 L194 334 C196 324 202 314 210 308 Z" />
    <path d="M188 334 C164 348 150 374 152 404 C162 420 178 428 196 424 C202 396 198 366 188 334 Z" />
    <path d="M330 332 C358 344 378 370 384 404 C382 426 368 438 346 438 C332 428 326 406 330 332 Z" />
    <path d="M334 392 C364 396 390 410 402 430 C402 446 392 454 372 454 C354 454 338 446 328 432 Z" />
  </g>
  <g fill="#000" stroke="none">
    <ellipse cx="232" cy="188" rx="13" ry="20" />
    <ellipse cx="292" cy="194" rx="9" ry="15" />
    <ellipse cx="310" cy="210" rx="10" ry="8" />
  </g>
  <g fill="none" stroke="#000" stroke-width="16" stroke-linecap="round" stroke-linejoin="round">
    <path d="M310 216 L324 226" />
    <path d="M308 230 C320 236 334 236 346 228" />
    <path d="M208 424 C208 444 220 458 236 464" />
    <path d="M256 424 V466" />
    <path d="M306 424 C310 444 324 458 340 464" />
    <path d="M168 404 C176 396 188 396 198 402" />
    <path d="M348 432 C360 424 372 424 384 430" />
  </g>
</svg>
