<svg xmlns="http://www.w3.org/2000/svg" width="512" height="512" viewBox="0 0 512 512">
  <g fill="#fff" stroke="#000" stroke-width="18" stroke-linecap="round" stroke-linejoin="round">
    <path d="M214 118 C198 84 212 58 242 48 C258 64 262 92 252 122 Z" />
    <path d="M286 124 C286 98 278 80 264 72 C256 82 256 102 260 126 Z" />
    <path d="M176 176 C178 118 216 88 266 88 H306 C344 92 370 116 378 146 C394 150 408 162 418 180 C430 204 424 234 404 252 C384 268 358 278 326 280 H258 C212 274 180 240 176 192 Z" />
    <path d="M296 184 C334 184 370 198 396 220 C402 236 398 248 378 258 H310 C280 254 264 240 262 220 C270 198 280 188 296 184 Z" />
    <path d="M180 244 L160 258 L178 272" />
    <path d="M210 304 C232 290 262 286 300 290 C326 294 346 308 356 328 V422 H212 L204 330 C204 320 206 312 210 304 Z" />
    <path d="M214 422 C218 444 230 458 246 464" />
    <path d="M292 422 C300 442 316 456 334 462" />
    <path d="M346 330 C374 346 390 372 394 402 C392 424 378 436 358 438 C344 426 340 404 346 330 Z" />
    <path d="M350 392 C380 398 402 414 410 432 C410 446 400 454 382 454 C364 454 350 446 340 430 Z" />
  </g>
  <g fill="#000" stroke="none">
    <ellipse cx="242" cy="188" rx="13" ry="21" />
    <ellipse cx="308" cy="204" rx="11" ry="8" />
  </g>
  <g fill="none" stroke="#000" stroke-width="16" stroke-linecap="round" stroke-linejoin="round">
    <path d="M308 212 L322 224" />
    <path d="M308 226 C320 232 334 232 346 226" />
    <path d="M214 420 C198 434 190 448 190 462" />
    <path d="M298 422 C308 440 324 454 340 460" />
    <path d="M356 432 C368 424 382 424 394 430" />
  </g>
</svg>
