<svg xmlns="http://www.w3.org/2000/svg" width="512" height="512" viewBox="0 0 512 512">
  <g fill="#fff" stroke="#000" stroke-width="18" stroke-linecap="round" stroke-linejoin="round">
    <path d="M188 124 C176 86 190 58 220 48 C238 64 242 98 232 126 Z" />
    <path d="M304 116 C312 86 304 60 284 52 C270 64 268 90 274 118 Z" />
    <path d="M154 174 C156 118 194 88 248 88 H292 C332 92 362 114 372 146 C390 148 406 160 416 178 C430 202 426 234 404 254 C388 272 364 282 336 286 H230 C186 282 156 248 154 206 Z" />
    <path d="M250 202 C280 184 330 184 362 198 C372 210 370 226 354 240 H294 C270 238 254 226 250 202 Z" />
    <path d="M174 246 L152 260 L172 274" />
    <path d="M208 304 C228 290 260 286 300 290 C326 294 346 308 356 330 L348 424 H202 L198 328 C200 318 204 310 208 304 Z" />
    <path d="M188 334 C162 350 148 378 150 406 C160 422 178 430 198 426 C204 396 198 366 188 334 Z" />
    <path d="M332 330 C360 344 382 372 388 406 C386 428 372 440 350 440 C336 430 328 408 332 330 Z" />
    <path d="M336 392 C368 396 394 410 406 430 C406 446 394 454 374 454 C356 454 340 446 330 432 Z" />
  </g>
  <g fill="#000" stroke="none">
    <ellipse cx="234" cy="188" rx="13" ry="21" />
    <ellipse cx="292" cy="194" rx="10" ry="17" />
    <ellipse cx="314" cy="206" rx="11" ry="8" />
  </g>
  <g fill="none" stroke="#000" stroke-width="16" stroke-linecap="round" stroke-linejoin="round">
    <path d="M314 214 L328 224" />
    <path d="M312 228 C324 234 338 234 350 226" />
    <path d="M206 424 C208 444 220 458 238 464" />
    <path d="M256 424 V466" />
    <path d="M306 424 C312 444 326 458 344 464" />
    <path d="M170 408 C182 398 196 398 208 406" />
    <path d="M352 430 C366 422 380 422 392 430" />
  </g>
</svg>
