<svg xmlns="http://www.w3.org/2000/svg" width="512" height="512" viewBox="0 0 512 512">
  <g fill="#fff" stroke="#000" stroke-width="18" stroke-linecap="round" stroke-linejoin="round">
    <path d="M186 128 C180 88 194 58 220 48 C236 68 242 98 236 128 Z" />
    <path d="M326 128 C332 88 318 58 292 48 C276 68 270 98 276 128 Z" />
    <path d="M162 170 C162 118 194 90 238 90 H274 C318 90 350 118 350 170 V214 C350 236 356 248 372 258 C386 268 392 284 388 300 C382 320 362 332 330 336 H182 C150 332 130 320 124 300 C120 284 126 268 140 258 C156 248 162 236 162 214 Z" />
    <path d="M198 334 C198 310 214 298 238 298 H274 C298 298 314 310 314 334 V420 H198 Z" />
    <path d="M194 336 C166 346 150 372 154 402 C164 424 184 436 202 430 C208 394 208 362 194 336 Z" />
    <path d="M318 336 C346 346 362 372 358 402 C348 424 328 436 310 430 C304 394 304 362 318 336 Z" />
    <path d="M218 222 C232 206 280 206 294 222 C296 238 286 250 268 256 H244 C226 250 216 238 218 222 Z" />
    <path d="M162 248 L136 262 L160 272" />
    <path d="M350 248 L376 262 L352 272" />
  </g>
  <g fill="#000" stroke="none">
    <ellipse cx="224" cy="192" rx="12" ry="20" />
    <ellipse cx="288" cy="192" rx="12" ry="20" />
    <ellipse cx="256" cy="216" rx="10" ry="7" />
  </g>
  <g fill="none" stroke="#000" stroke-width="16" stroke-linecap="round" stroke-linejoin="round">
    <path d="M256 222 V232" />
    <path d="M246 238 C250 242 254 244 256 244 C258 244 262 242 266 238" />
    <path d="M198 420 C198 446 214 466 232 470" />
    <path d="M256 420 V468" />
    <path d="M314 420 C314 446 298 466 280 470" />
    <path d="M168 414 C176 404 188 402 198 408" />
    <path d="M314 408 C324 402 336 404 344 414" />
  </g>
</svg>
